<svg width="386" height="223" viewBox="0 0 386 223" fill="none" xmlns="http://www.w3.org/2000/svg">
<path d="M283 20H143C140.348 20 137.804 21.0536 135.929 22.9289C134.054 24.8043 133 27.3478 133 30V60H183V40H243V140H283C285.652 140 288.196 138.946 290.071 137.071C291.946 135.196 293 132.652 293 130V30C293 27.3478 291.946 24.8043 290.071 22.9289C288.196 21.0536 285.652 20 283 20ZM165.5 52.1875C165.5 52.9334 165.204 53.6488 164.676 54.1762C164.149 54.7037 163.433 55 162.688 55H153.312C152.567 55 151.851 54.7037 151.324 54.1762C150.796 53.6488 150.5 52.9334 150.5 52.1875V42.8125C150.5 42.0666 150.796 41.3512 151.324 40.8238C151.851 40.2963 152.567 40 153.312 40H162.688C163.433 40 164.149 40.2963 164.676 40.8238C165.204 41.3512 165.5 42.0666 165.5 42.8125V52.1875ZM275.5 117.188C275.5 117.933 275.204 118.649 274.676 119.176C274.149 119.704 273.433 120 272.688 120H263.312C262.567 120 261.851 119.704 261.324 119.176C260.796 118.649 260.5 117.933 260.5 117.188V107.812C260.5 107.067 260.796 106.351 261.324 105.824C261.851 105.296 262.567 105 263.312 105H272.688C273.433 105 274.149 105.296 274.676 105.824C275.204 106.351 275.5 107.067 275.5 107.812V117.188ZM275.5 84.6875C275.5 85.4334 275.204 86.1488 274.676 86.6762C274.149 87.2037 273.433 87.5 272.688 87.5H263.312C262.567 87.5 261.851 87.2037 261.324 86.6762C260.796 86.1488 260.5 85.4334 260.5 84.6875V75.3125C260.5 74.5666 260.796 73.8512 261.324 73.3238C261.851 72.7963 262.567 72.5 263.312 72.5H272.688C273.433 72.5 274.149 72.7963 274.676 73.3238C275.204 73.8512 275.5 74.5666 275.5 75.3125V84.6875ZM275.5 52.1875C275.5 52.9334 275.204 53.6488 274.676 54.1762C274.149 54.7037 273.433 55 272.688 55H263.312C262.567 55 261.851 54.7037 261.324 54.1762C260.796 53.6488 260.5 52.9334 260.5 52.1875V42.8125C260.5 42.0666 260.796 41.3512 261.324 40.8238C261.851 40.2963 262.567 40 263.312 40H272.688C273.433 40 274.149 40.2963 274.676 40.8238C275.204 41.3512 275.5 42.0666 275.5 42.8125V52.1875ZM223 70H103C100.348 70 97.8043 71.0536 95.9289 72.9289C94.0536 74.8043 93 77.3478 93 80V170C93 172.652 94.0536 175.196 95.9289 177.071C97.8043 178.946 100.348 180 103 180H223C225.652 180 228.196 178.946 230.071 177.071C231.946 175.196 233 172.652 233 170V80C233 77.3478 231.946 74.8043 230.071 72.9289C228.196 71.0536 225.652 70 223 70ZM123 90C124.978 90 126.911 90.5865 128.556 91.6853C130.2 92.7841 131.482 94.3459 132.239 96.1732C132.996 98.0004 133.194 100.011 132.808 101.951C132.422 103.891 131.47 105.673 130.071 107.071C128.673 108.47 126.891 109.422 124.951 109.808C123.011 110.194 121 109.996 119.173 109.239C117.346 108.482 115.784 107.2 114.685 105.556C113.586 103.911 113 101.978 113 100C113 97.3478 114.054 94.8043 115.929 92.9289C117.804 91.0536 120.348 90 123 90ZM213 160H113V150L133 130L143 140L183 100L213 130V160Z" fill="black"/>
<path d="M3.48057 217.15C2.89057 217.15 2.34057 217.095 1.83057 216.985C1.33057 216.865 0.905566 216.725 0.555566 216.565L0.945566 215.485C1.15557 215.565 1.39557 215.65 1.66557 215.74C1.93557 215.83 2.22557 215.905 2.53557 215.965C2.85557 216.015 3.18057 216.04 3.51057 216.04C4.04057 216.04 4.48057 215.94 4.83057 215.74C5.18057 215.54 5.35557 215.25 5.35557 214.87C5.35557 214.64 5.29057 214.445 5.16057 214.285C5.04057 214.115 4.85057 213.96 4.59057 213.82C4.33057 213.68 3.99557 213.545 3.58557 213.415C2.95557 213.215 2.42057 213.005 1.98057 212.785C1.55057 212.555 1.22057 212.285 0.990566 211.975C0.770566 211.655 0.660566 211.26 0.660566 210.79C0.660566 210.37 0.770566 210 0.990566 209.68C1.22057 209.35 1.57057 209.095 2.04057 208.915C2.52057 208.725 3.13057 208.63 3.87057 208.63C4.35057 208.63 4.80057 208.675 5.22057 208.765C5.65057 208.845 5.98557 208.96 6.22557 209.11V210.235C6.05557 210.155 5.84057 210.075 5.58057 209.995C5.33057 209.915 5.05557 209.85 4.75557 209.8C4.45557 209.75 4.14557 209.725 3.82557 209.725C3.15557 209.725 2.68057 209.83 2.40057 210.04C2.13057 210.24 1.99557 210.47 1.99557 210.73C1.99557 210.95 2.05557 211.135 2.17557 211.285C2.30557 211.435 2.52057 211.58 2.82057 211.72C3.13057 211.86 3.54557 212.02 4.06557 212.2C4.54557 212.36 4.98557 212.545 5.38557 212.755C5.78557 212.965 6.10057 213.23 6.33057 213.55C6.57057 213.86 6.69057 214.26 6.69057 214.75C6.69057 215.17 6.58557 215.565 6.37557 215.935C6.17557 216.295 5.84057 216.59 5.37057 216.82C4.90057 217.04 4.27057 217.15 3.48057 217.15ZM11.4048 217.15C10.3248 217.15 9.51479 216.87 8.97479 216.31C8.44479 215.74 8.17979 214.85 8.17979 213.64C8.17979 213.44 8.18479 213.225 8.19479 212.995C8.21479 212.755 8.23479 212.52 8.25479 212.29H11.4048V213.34H9.51479V213.64C9.51479 214.27 9.58479 214.765 9.72479 215.125C9.86479 215.475 10.0698 215.72 10.3398 215.86C10.6198 216 10.9648 216.07 11.3748 216.07C11.8248 216.07 12.2148 215.985 12.5448 215.815C12.8748 215.645 13.1298 215.335 13.3098 214.885C13.4898 214.435 13.5798 213.79 13.5798 212.95C13.5798 212.21 13.4998 211.605 13.3398 211.135C13.1798 210.665 12.9148 210.315 12.5448 210.085C12.1848 209.855 11.6948 209.74 11.0748 209.74C10.7548 209.74 10.4448 209.77 10.1448 209.83C9.84479 209.88 9.55479 209.96 9.27479 210.07C8.99479 210.17 8.71979 210.3 8.44979 210.46V209.215C8.64979 209.105 8.89479 209.01 9.18479 208.93C9.47479 208.84 9.79479 208.77 10.1448 208.72C10.4948 208.66 10.8598 208.63 11.2398 208.63C12.1198 208.63 12.8298 208.81 13.3698 209.17C13.9198 209.52 14.3198 210.02 14.5698 210.67C14.8198 211.31 14.9448 212.07 14.9448 212.95C14.9448 213.83 14.8298 214.585 14.5998 215.215C14.3698 215.845 13.9948 216.325 13.4748 216.655C12.9648 216.985 12.2748 217.15 11.4048 217.15ZM18.4581 217L15.8931 208.78H17.2431L19.4631 215.845H19.6431C19.8831 215.845 20.1181 215.79 20.3481 215.68C20.5781 215.56 20.7731 215.41 20.9331 215.23C21.2331 214.9 21.4531 214.485 21.5931 213.985C21.7331 213.475 21.8031 212.975 21.8031 212.485C21.8031 211.655 21.6131 211.005 21.2331 210.535C20.8631 210.055 20.3481 209.815 19.6881 209.815C19.5581 209.815 19.4281 209.825 19.2981 209.845C19.1781 209.865 19.0781 209.89 18.9981 209.92L18.6681 208.855C18.8781 208.795 19.0731 208.755 19.2531 208.735C19.4431 208.715 19.6131 208.705 19.7631 208.705C20.2631 208.705 20.7081 208.78 21.0981 208.93C21.4981 209.07 21.8381 209.28 22.1181 209.56C22.4681 209.9 22.7231 210.325 22.8831 210.835C23.0531 211.345 23.1381 211.91 23.1381 212.53C23.1381 213.31 23.0181 214.005 22.7781 214.615C22.5381 215.215 22.2381 215.695 21.8781 216.055C21.5881 216.345 21.2331 216.575 20.8131 216.745C20.3931 216.915 19.8581 217 19.2081 217H18.4581ZM27.4747 217.15C26.8847 217.15 26.3347 217.095 25.8247 216.985C25.3247 216.865 24.8997 216.725 24.5497 216.565L24.9397 215.485C25.1497 215.565 25.3897 215.65 25.6597 215.74C25.9297 215.83 26.2197 215.905 26.5297 215.965C26.8497 216.015 27.1747 216.04 27.5047 216.04C28.0347 216.04 28.4747 215.94 28.8247 215.74C29.1747 215.54 29.3497 215.25 29.3497 214.87C29.3497 214.64 29.2847 214.445 29.1547 214.285C29.0347 214.115 28.8447 213.96 28.5847 213.82C28.3247 213.68 27.9897 213.545 27.5797 213.415C26.9497 213.215 26.4147 213.005 25.9747 212.785C25.5447 212.555 25.2147 212.285 24.9847 211.975C24.7647 211.655 24.6547 211.26 24.6547 210.79C24.6547 210.37 24.7647 210 24.9847 209.68C25.2147 209.35 25.5647 209.095 26.0347 208.915C26.5147 208.725 27.1247 208.63 27.8647 208.63C28.3447 208.63 28.7947 208.675 29.2147 208.765C29.6447 208.845 29.9797 208.96 30.2197 209.11V210.235C30.0497 210.155 29.8347 210.075 29.5747 209.995C29.3247 209.915 29.0497 209.85 28.7497 209.8C28.4497 209.75 28.1397 209.725 27.8197 209.725C27.1497 209.725 26.6747 209.83 26.3947 210.04C26.1247 210.24 25.9897 210.47 25.9897 210.73C25.9897 210.95 26.0497 211.135 26.1697 211.285C26.2997 211.435 26.5147 211.58 26.8147 211.72C27.1247 211.86 27.5397 212.02 28.0597 212.2C28.5397 212.36 28.9797 212.545 29.3797 212.755C29.7797 212.965 30.0947 213.23 30.3247 213.55C30.5647 213.86 30.6847 214.26 30.6847 214.75C30.6847 215.17 30.5797 215.565 30.3697 215.935C30.1697 216.295 29.8347 216.59 29.3647 216.82C28.8947 217.04 28.2647 217.15 27.4747 217.15ZM28.7663 207.475C28.3463 207.475 28.0113 207.415 27.7613 207.295C27.5113 207.175 27.3313 207.02 27.2213 206.83C27.1013 206.64 27.0413 206.44 27.0413 206.23C27.0413 206.08 27.0663 205.92 27.1163 205.75C27.1563 205.57 27.2113 205.425 27.2813 205.315L28.4063 205.51C28.3863 205.55 28.3663 205.62 28.3463 205.72C28.3263 205.81 28.3163 205.895 28.3163 205.975C28.3163 206.105 28.3563 206.22 28.4363 206.32C28.5163 206.41 28.6513 206.455 28.8413 206.455H32.6363V207.475H28.7663ZM35.7889 217.15C34.6089 217.15 33.7639 216.88 33.2539 216.34C32.7439 215.8 32.4889 215.03 32.4889 214.03V208.78H33.8239V214.045C33.8239 214.715 33.9839 215.215 34.3039 215.545C34.6239 215.875 35.1189 216.04 35.7889 216.04C36.4689 216.04 36.9689 215.875 37.2889 215.545C37.6189 215.215 37.7839 214.715 37.7839 214.045V208.78H39.1189V214.03C39.1189 215.03 38.8589 215.8 38.3389 216.34C37.8289 216.88 36.9789 217.15 35.7889 217.15ZM50.7457 206.545V214.27C50.7457 215.13 50.4807 215.82 49.9507 216.34C49.4207 216.85 48.7207 217.105 47.8507 217.105C46.9707 217.105 46.2657 216.845 45.7357 216.325C45.2057 215.795 44.9407 215.075 44.9407 214.165H46.3057C46.3157 214.675 46.4457 215.09 46.6957 215.41C46.9557 215.73 47.3407 215.89 47.8507 215.89C48.3607 215.89 48.7407 215.74 48.9907 215.44C49.2407 215.13 49.3657 214.74 49.3657 214.27V206.545H50.7457ZM60.4248 209.605C60.4248 210.475 60.1248 211.2 59.5248 211.78C58.9348 212.35 58.0298 212.635 56.8098 212.635H54.7998V217H53.4348V206.545H56.8098C57.9898 206.545 58.8848 206.83 59.4948 207.4C60.1148 207.97 60.4248 208.705 60.4248 209.605ZM56.8098 211.51C57.5698 211.51 58.1298 211.345 58.4898 211.015C58.8498 210.685 59.0298 210.215 59.0298 209.605C59.0298 208.315 58.2898 207.67 56.8098 207.67H54.7998V211.51H56.8098ZM70.0413 209.575C69.7513 208.965 69.3313 208.495 68.7813 208.165C68.2313 207.825 67.5913 207.655 66.8613 207.655C66.1313 207.655 65.4713 207.825 64.8813 208.165C64.3013 208.495 63.8413 208.975 63.5013 209.605C63.1713 210.225 63.0063 210.945 63.0063 211.765C63.0063 212.585 63.1713 213.305 63.5013 213.925C63.8413 214.545 64.3013 215.025 64.8813 215.365C65.4713 215.695 66.1313 215.86 66.8613 215.86C67.8813 215.86 68.7213 215.555 69.3813 214.945C70.0413 214.335 70.4263 213.51 70.5363 212.47H66.3663V211.36H71.9913V212.41C71.9113 213.27 71.6413 214.06 71.1813 214.78C70.7213 215.49 70.1163 216.055 69.3663 216.475C68.6163 216.885 67.7813 217.09 66.8613 217.09C65.8913 217.09 65.0063 216.865 64.2063 216.415C63.4063 215.955 62.7713 215.32 62.3013 214.51C61.8413 213.7 61.6113 212.785 61.6113 211.765C61.6113 210.745 61.8413 209.83 62.3013 209.02C62.7713 208.2 63.4063 207.565 64.2063 207.115C65.0063 206.655 65.8913 206.425 66.8613 206.425C67.9713 206.425 68.9513 206.7 69.8013 207.25C70.6613 207.8 71.2863 208.575 71.6763 209.575H70.0413ZM83.0601 206.545V214.27C83.0601 215.13 82.7951 215.82 82.2651 216.34C81.7351 216.85 81.0351 217.105 80.1651 217.105C79.2851 217.105 78.5801 216.845 78.0501 216.325C77.5201 215.795 77.2551 215.075 77.2551 214.165H78.6201C78.6301 214.675 78.7601 215.09 79.0101 215.41C79.2701 215.73 79.6551 215.89 80.1651 215.89C80.6751 215.89 81.0551 215.74 81.3051 215.44C81.5551 215.13 81.6801 214.74 81.6801 214.27V206.545H83.0601ZM92.7392 209.605C92.7392 210.475 92.4392 211.2 91.8392 211.78C91.2492 212.35 90.3442 212.635 89.1242 212.635H87.1142V217H85.7492V206.545H89.1242C90.3042 206.545 91.1992 206.83 91.8092 207.4C92.4292 207.97 92.7392 208.705 92.7392 209.605ZM89.1242 211.51C89.8842 211.51 90.4442 211.345 90.8042 211.015C91.1642 210.685 91.3442 210.215 91.3442 209.605C91.3442 208.315 90.6042 207.67 89.1242 207.67H87.1142V211.51H89.1242ZM95.8008 207.655V211.15H99.6108V212.275H95.8008V215.875H100.061V217H94.4358V206.53H100.061V207.655H95.8008ZM110.046 209.575C109.756 208.965 109.336 208.495 108.786 208.165C108.236 207.825 107.596 207.655 106.866 207.655C106.136 207.655 105.476 207.825 104.886 208.165C104.306 208.495 103.846 208.975 103.506 209.605C103.176 210.225 103.011 210.945 103.011 211.765C103.011 212.585 103.176 213.305 103.506 213.925C103.846 214.545 104.306 215.025 104.886 215.365C105.476 215.695 106.136 215.86 106.866 215.86C107.886 215.86 108.726 215.555 109.386 214.945C110.046 214.335 110.431 213.51 110.541 212.47H106.371V211.36H111.996V212.41C111.916 213.27 111.646 214.06 111.186 214.78C110.726 215.49 110.121 216.055 109.371 216.475C108.621 216.885 107.786 217.09 106.866 217.09C105.896 217.09 105.011 216.865 104.211 216.415C103.411 215.955 102.776 215.32 102.306 214.51C101.846 213.7 101.616 212.785 101.616 211.765C101.616 210.745 101.846 209.83 102.306 209.02C102.776 208.2 103.411 207.565 104.211 207.115C105.011 206.655 105.896 206.425 106.866 206.425C107.976 206.425 108.956 206.7 109.806 207.25C110.666 207.8 111.291 208.575 111.681 209.575H110.046ZM124.79 209.605C124.79 210.475 124.49 211.2 123.89 211.78C123.3 212.35 122.395 212.635 121.175 212.635H119.165V217H117.8V206.545H121.175C122.355 206.545 123.25 206.83 123.86 207.4C124.48 207.97 124.79 208.705 124.79 209.605ZM121.175 211.51C121.935 211.51 122.495 211.345 122.855 211.015C123.215 210.685 123.395 210.215 123.395 209.605C123.395 208.315 122.655 207.67 121.175 207.67H119.165V211.51H121.175ZM134.707 217H133.342L127.852 208.675V217H126.487V206.53H127.852L133.342 214.84V206.53H134.707V217ZM144.953 209.575C144.663 208.965 144.243 208.495 143.693 208.165C143.143 207.825 142.503 207.655 141.773 207.655C141.043 207.655 140.383 207.825 139.793 208.165C139.213 208.495 138.753 208.975 138.413 209.605C138.083 210.225 137.918 210.945 137.918 211.765C137.918 212.585 138.083 213.305 138.413 213.925C138.753 214.545 139.213 215.025 139.793 215.365C140.383 215.695 141.043 215.86 141.773 215.86C142.793 215.86 143.633 215.555 144.293 214.945C144.953 214.335 145.338 213.51 145.448 212.47H141.278V211.36H146.903V212.41C146.823 213.27 146.553 214.06 146.093 214.78C145.633 215.49 145.028 216.055 144.278 216.475C143.528 216.885 142.693 217.09 141.773 217.09C140.803 217.09 139.918 216.865 139.118 216.415C138.318 215.955 137.683 215.32 137.213 214.51C136.753 213.7 136.523 212.785 136.523 211.765C136.523 210.745 136.753 209.83 137.213 209.02C137.683 208.2 138.318 207.565 139.118 207.115C139.918 206.655 140.803 206.425 141.773 206.425C142.883 206.425 143.863 206.7 144.713 207.25C145.573 207.8 146.198 208.575 146.588 209.575H144.953ZM160.627 209.575C160.337 208.965 159.917 208.495 159.367 208.165C158.817 207.825 158.177 207.655 157.447 207.655C156.717 207.655 156.057 207.825 155.467 208.165C154.887 208.495 154.427 208.975 154.087 209.605C153.757 210.225 153.592 210.945 153.592 211.765C153.592 212.585 153.757 213.305 154.087 213.925C154.427 214.545 154.887 215.025 155.467 215.365C156.057 215.695 156.717 215.86 157.447 215.86C158.467 215.86 159.307 215.555 159.967 214.945C160.627 214.335 161.012 213.51 161.122 212.47H156.952V211.36H162.577V212.41C162.497 213.27 162.227 214.06 161.767 214.78C161.307 215.49 160.702 216.055 159.952 216.475C159.202 216.885 158.367 217.09 157.447 217.09C156.477 217.09 155.592 216.865 154.792 216.415C153.992 215.955 153.357 215.32 152.887 214.51C152.427 213.7 152.197 212.785 152.197 211.765C152.197 210.745 152.427 209.83 152.887 209.02C153.357 208.2 153.992 207.565 154.792 207.115C155.592 206.655 156.477 206.425 157.447 206.425C158.557 206.425 159.537 206.7 160.387 207.25C161.247 207.8 161.872 208.575 162.262 209.575H160.627ZM165.747 206.545V217H164.382V206.545H165.747ZM173.983 206.545V207.655H169.438V211.18H173.128V212.29H169.438V217H168.073V206.545H173.983ZM190.236 206.62V217H188.871V209.26L185.421 217H184.461L180.996 209.245V217H179.631V206.62H181.101L184.941 215.2L188.781 206.62H190.236ZM199.541 209.605C199.541 210.475 199.241 211.2 198.641 211.78C198.051 212.35 197.146 212.635 195.926 212.635H193.916V217H192.551V206.545H195.926C197.106 206.545 198.001 206.83 198.611 207.4C199.231 207.97 199.541 208.705 199.541 209.605ZM195.926 211.51C196.686 211.51 197.246 211.345 197.606 211.015C197.966 210.685 198.146 210.215 198.146 209.605C198.146 208.315 197.406 207.67 195.926 207.67H193.916V211.51H195.926ZM200.683 214.585V213.55L205.948 206.26H207.583V213.4H209.083V214.585H207.583V217H206.233V214.585H200.683ZM206.293 207.685L202.258 213.4H206.293V207.685ZM225.275 206.62V217H223.91V209.26L220.46 217H219.5L216.035 209.245V217H214.67V206.62H216.14L219.98 215.2L223.82 206.62H225.275ZM227.035 214.585V213.55L232.3 206.26H233.935V213.4H235.435V214.585H233.935V217H232.585V214.585H227.035ZM232.645 207.685L228.61 213.4H232.645V207.685ZM243.204 214.675H238.644L237.804 217H236.364L240.144 206.605H241.719L245.484 217H244.044L243.204 214.675ZM242.814 213.565L240.924 208.285L239.034 213.565H242.814ZM261.735 206.62V217H260.37V209.26L256.92 217H255.96L252.495 209.245V217H251.13V206.62H252.6L256.44 215.2L260.28 206.62H261.735ZM268.79 217.105C267.82 217.105 266.935 216.88 266.135 216.43C265.335 215.97 264.7 215.335 264.23 214.525C263.77 213.705 263.54 212.785 263.54 211.765C263.54 210.745 263.77 209.83 264.23 209.02C264.7 208.2 265.335 207.565 266.135 207.115C266.935 206.655 267.82 206.425 268.79 206.425C269.77 206.425 270.66 206.655 271.46 207.115C272.26 207.565 272.89 208.195 273.35 209.005C273.81 209.815 274.04 210.735 274.04 211.765C274.04 212.795 273.81 213.715 273.35 214.525C272.89 215.335 272.26 215.97 271.46 216.43C270.66 216.88 269.77 217.105 268.79 217.105ZM268.79 215.92C269.52 215.92 270.175 215.75 270.755 215.41C271.345 215.07 271.805 214.585 272.135 213.955C272.475 213.325 272.645 212.595 272.645 211.765C272.645 210.925 272.475 210.195 272.135 209.575C271.805 208.945 271.35 208.46 270.77 208.12C270.19 207.78 269.53 207.61 268.79 207.61C268.05 207.61 267.39 207.78 266.81 208.12C266.23 208.46 265.77 208.945 265.43 209.575C265.1 210.195 264.935 210.925 264.935 211.765C264.935 212.595 265.1 213.325 265.43 213.955C265.77 214.585 266.23 215.07 266.81 215.41C267.4 215.75 268.06 215.92 268.79 215.92ZM284.482 206.545L280.537 217H278.962L275.017 206.545H276.472L279.757 215.56L283.042 206.545H284.482ZM294.628 206.95L295.168 207.925L293.083 208.795L295.183 209.65L294.613 210.655L292.798 209.335L293.038 211.6H291.913L292.138 209.335L290.323 210.67L289.738 209.65L291.823 208.78L289.738 207.94L290.293 206.935L292.153 208.27L291.913 205.99H293.053L292.798 208.27L294.628 206.95ZM307.878 206.62V217H306.513V209.26L303.063 217H302.103L298.638 209.245V217H297.273V206.62H298.743L302.583 215.2L306.423 206.62H307.878ZM316.373 214.675H311.813L310.973 217H309.533L313.313 206.605H314.888L318.653 217H317.213L316.373 214.675ZM315.983 213.565L314.093 208.285L312.203 213.565H315.983ZM324.575 211.78L327.785 217H326.24L323.735 212.92L321.35 217H319.835L323.03 211.78L319.82 206.545H321.35L323.87 210.64L326.27 206.545H327.8L324.575 211.78ZM333.225 215.905C334.495 214.885 335.49 214.05 336.21 213.4C336.93 212.74 337.535 212.055 338.025 211.345C338.525 210.625 338.775 209.92 338.775 209.23C338.775 208.58 338.615 208.07 338.295 207.7C337.985 207.32 337.48 207.13 336.78 207.13C336.1 207.13 335.57 207.345 335.19 207.775C334.82 208.195 334.62 208.76 334.59 209.47H333.27C333.31 208.35 333.65 207.485 334.29 206.875C334.93 206.265 335.755 205.96 336.765 205.96C337.795 205.96 338.61 206.245 339.21 206.815C339.82 207.385 340.125 208.17 340.125 209.17C340.125 210 339.875 210.81 339.375 211.6C338.885 212.38 338.325 213.07 337.695 213.67C337.065 214.26 336.26 214.95 335.28 215.74H340.44V216.88H333.225V215.905ZM342.018 211.465C342.018 209.745 342.298 208.405 342.858 207.445C343.418 206.475 344.398 205.99 345.798 205.99C347.188 205.99 348.163 206.475 348.723 207.445C349.283 208.405 349.563 209.745 349.563 211.465C349.563 213.215 349.283 214.575 348.723 215.545C348.163 216.515 347.188 217 345.798 217C344.398 217 343.418 216.515 342.858 215.545C342.298 214.575 342.018 213.215 342.018 211.465ZM348.213 211.465C348.213 210.595 348.153 209.86 348.033 209.26C347.923 208.65 347.688 208.16 347.328 207.79C346.978 207.42 346.468 207.235 345.798 207.235C345.118 207.235 344.598 207.42 344.238 207.79C343.888 208.16 343.653 208.65 343.533 209.26C343.423 209.86 343.368 210.595 343.368 211.465C343.368 212.365 343.423 213.12 343.533 213.73C343.653 214.34 343.888 214.83 344.238 215.2C344.598 215.57 345.118 215.755 345.798 215.755C346.468 215.755 346.978 215.57 347.328 215.2C347.688 214.83 347.923 214.34 348.033 213.73C348.153 213.12 348.213 212.365 348.213 211.465ZM351.437 211.465C351.437 209.745 351.717 208.405 352.277 207.445C352.837 206.475 353.817 205.99 355.217 205.99C356.607 205.99 357.582 206.475 358.142 207.445C358.702 208.405 358.982 209.745 358.982 211.465C358.982 213.215 358.702 214.575 358.142 215.545C357.582 216.515 356.607 217 355.217 217C353.817 217 352.837 216.515 352.277 215.545C351.717 214.575 351.437 213.215 351.437 211.465ZM357.632 211.465C357.632 210.595 357.572 209.86 357.452 209.26C357.342 208.65 357.107 208.16 356.747 207.79C356.397 207.42 355.887 207.235 355.217 207.235C354.537 207.235 354.017 207.42 353.657 207.79C353.307 208.16 353.072 208.65 352.952 209.26C352.842 209.86 352.787 210.595 352.787 211.465C352.787 212.365 352.842 213.12 352.952 213.73C353.072 214.34 353.307 214.83 353.657 215.2C354.017 215.57 354.537 215.755 355.217 215.755C355.887 215.755 356.397 215.57 356.747 215.2C357.107 214.83 357.342 214.34 357.452 213.73C357.572 213.12 357.632 212.365 357.632 211.465ZM375.685 206.62V217H374.32V209.26L370.87 217H369.91L366.445 209.245V217H365.08V206.62H366.55L370.39 215.2L374.23 206.62H375.685ZM383.235 211.615C383.615 211.675 383.96 211.83 384.27 212.08C384.59 212.33 384.84 212.64 385.02 213.01C385.21 213.38 385.305 213.775 385.305 214.195C385.305 214.725 385.17 215.205 384.9 215.635C384.63 216.055 384.235 216.39 383.715 216.64C383.205 216.88 382.6 217 381.9 217H378V206.545H381.75C382.46 206.545 383.065 206.665 383.565 206.905C384.065 207.135 384.44 207.45 384.69 207.85C384.94 208.25 385.065 208.7 385.065 209.2C385.065 209.82 384.895 210.335 384.555 210.745C384.225 211.145 383.785 211.435 383.235 211.615ZM379.365 211.06H381.66C382.3 211.06 382.795 210.91 383.145 210.61C383.495 210.31 383.67 209.895 383.67 209.365C383.67 208.835 383.495 208.42 383.145 208.12C382.795 207.82 382.29 207.67 381.63 207.67H379.365V211.06ZM381.78 215.875C382.46 215.875 382.99 215.715 383.37 215.395C383.75 215.075 383.94 214.63 383.94 214.06C383.94 213.48 383.74 213.025 383.34 212.695C382.94 212.355 382.405 212.185 381.735 212.185H379.365V215.875H381.78Z" fill="#777777"/>
</svg>
